# xmcd
#
# Track frame offsets: 
#        150
#        16374
#        32478
#        50535
#        75136
#        91471
#        108406
#        125550
#        150447
#        165387
#        180073
#        197368
#
# Disc length: 2852 seconds
#
# Revision: 0
# Processed by: cddbd v1.5.2PL0 Copyright (c) Steve Scherf et al.
# Submitted via: ExactAudioCopy v1.0b1
#
DISCID=780b220c
DTITLE=Big Jim Adam - Cajun Moon
DYEAR=2013
DGENRE=Blues
TTITLE0=Come On In My Kitchen
TTITLE1=It's What Owns You
TTITLE2=If I Was The Devil
TTITLE3=Frankie And Johnny
TTITLE4=Cajun Moon
TTITLE5=Gumbo Yaya
TTITLE6=Heard It From Big Llou
TTITLE7=Graspin' At The Wind
TTITLE8=Get Down On My Knees
TTITLE9=Henry
TTITLE10=If It Hadn't Been For Love
TTITLE11=John Henry
EXTD=
EXTT0=
EXTT1=
EXTT2=
EXTT3=
EXTT4=
EXTT5=
EXTT6=
EXTT7=
EXTT8=
EXTT9=
EXTT10=
EXTT11=
PLAYORDER=
